<svg xmlns="http://www.w3.org/2000/svg" width="480" height="170" viewBox="0 0 480 170" role="img" aria-label="AWAITING CREDENTIALS: Spotify not wired up yet by add the three repo secrets - see SETUP.md"><title>AWAITING CREDENTIALS — Spotify not wired up yet · add the three repo secrets - see SETUP.md</title><defs><clipPath id="art"><rect x="20" y="27.0" width="116" height="116" rx="9"/></clipPath><linearGradient id="fade" x1="0" y1="0" x2="1" y2="1"><stop offset="0" stop-color="#4a8bf7" stop-opacity="0.30"/><stop offset="1" stop-color="#1DB954" stop-opacity="0.18"/></linearGradient></defs><rect width="480" height="170" rx="12" fill="#111a2b"/><rect x="0.5" y="0.5" width="479" height="169" rx="12" fill="none" stroke="#1f2b42"/><rect x="20" y="27.0" width="116" height="116" rx="9" fill="url(#fade)"/><text x="78.0" y="97.0" text-anchor="middle" font-family="ui-sans-serif,system-ui,'Segoe UI',Roboto,Helvetica,Arial,sans-serif" font-size="34" fill="#7d8aa3">♫</text><rect x="20.5" y="27.5" width="115" height="115" rx="9" fill="none" stroke="#1f2b42"/><g transform="translate(446,30)"><circle r="10" fill="#1DB954"/><g stroke="#0a0f1a" stroke-width="1.7" stroke-linecap="round" fill="none"><path d="M-6.1,-3.4 Q0,-6.4 6.3,-2.3"/><path d="M-5.1,0.3 Q0,-2.2 5.3,1.3"/><path d="M-4.0,3.9 Q0,1.9 4.4,4.7"/></g></g><rect x="148.0" y="42" width="3" height="4" rx="1.5" fill="#7d8aa3"/><rect x="153.5" y="42" width="3" height="4" rx="1.5" fill="#7d8aa3"/><rect x="159.0" y="42" width="3" height="4" rx="1.5" fill="#7d8aa3"/><rect x="164.5" y="42" width="3" height="4" rx="1.5" fill="#7d8aa3"/><rect x="170.0" y="42" width="3" height="4" rx="1.5" fill="#7d8aa3"/><text x="181.0" y="46" font-family="ui-monospace,SFMono-Regular,Menlo,Consolas,monospace" font-size="10.5" letter-spacing="0.09em" font-weight="700" fill="#f59e0b">AWAITING CREDENTIALS</text><text x="148.0" y="74" font-family="ui-sans-serif,system-ui,'Segoe UI',Roboto,Helvetica,Arial,sans-serif" font-size="15.5" font-weight="700" fill="#e8eef7">Spotify not wired up yet</text><text x="148.0" y="95" font-family="ui-sans-serif,system-ui,'Segoe UI',Roboto,Helvetica,Arial,sans-serif" font-size="12.5" fill="#9aabc4">add the three repo secrets - see SETUP.md</text><text x="148.0" y="140" font-family="ui-monospace,SFMono-Regular,Menlo,Consolas,monospace" font-size="9.5" fill="#7d8aa3">source: spotify web api · fetched 14:14 utc</text></svg>